<!-- Generator: Adobe Illustrator 23.0.5, SVG Export Plug-In  -->
<svg version="1.1" xmlns="http://www.w3.org/2000/svg" xmlns:xlink="http://www.w3.org/1999/xlink" viewBox="0 0 392.7 258.5" >
<defs>
</defs>

<g>
	<path d="M41,209.3c-12.3-5-22.1-12.5-29.4-22.3C4.3,177.1,0.4,165.3,0,151.4h54.9c0.8,7.8,3.5,13.8,8.1,17.9
		c4.6,4.1,10.7,6.2,18.1,6.2c7.6,0,13.7-1.8,18.1-5.3c4.4-3.5,6.6-8.4,6.6-14.6c0-5.2-1.8-9.5-5.3-13c-3.5-3.4-7.8-6.2-13-8.4
		c-5.1-2.2-12.4-4.7-21.9-7.5c-13.7-4.2-24.8-8.4-33.5-12.7c-8.6-4.2-16.1-10.5-22.3-18.7c-6.2-8.2-9.3-19-9.3-32.3
		c0-19.7,7.1-35.1,21.4-46.3C36.3,5.6,54.9,0,77.8,0c23.3,0,42.1,5.6,56.4,16.7c14.3,11.2,21.9,26.7,22.9,46.6h-55.8
		c-0.4-6.8-2.9-12.2-7.5-16.1c-4.6-3.9-10.6-5.9-17.8-5.9c-6.2,0-11.3,1.7-15.1,5c-3.8,3.3-5.7,8.1-5.7,14.3c0,6.8,3.2,12.2,9.7,16
		C71.3,80.4,81.3,84.6,95,89c13.7,4.6,24.8,9,33.3,13.3c8.5,4.2,15.9,10.4,22.2,18.4c6.2,8,9.3,18.4,9.3,31.1
		c0,12.1-3.1,23-9.2,32.9c-6.1,9.9-15,17.7-26.7,23.5c-11.7,5.8-25.4,8.7-41.3,8.7C67.2,216.8,53.3,214.3,41,209.3z"/>
	<path d="M299.5,214.7l-44-79.9h-12.4v79.9h-51.6V3h86.6c16.7,0,30.9,2.9,42.7,8.7c11.8,5.8,20.6,13.8,26.4,24
		c5.8,10.2,8.7,21.5,8.7,33.9c0,14.1-4,26.6-11.9,37.7c-7.9,11.1-19.7,18.9-35.1,23.5l48.9,83.8H299.5z M243.1,98.3h32
		c9.4,0,16.5-2.3,21.3-6.9c4.7-4.6,7.1-11.2,7.1-19.6c0-8-2.4-14.4-7.1-19c-4.7-4.6-11.8-6.9-21.3-6.9h-32V98.3z"/>
</g>
</svg>
