<!-- Generator: Adobe Illustrator 23.0.5, SVG Export Plug-In  -->
<svg version="1.1" xmlns="http://www.w3.org/2000/svg" xmlns:xlink="http://www.w3.org/1999/xlink" viewBox="0 0 404.8 404.8" style="enable-background:new 0 0 404.8 404.8;" xml:space="preserve">
<style type="text/css">
	.st0{fill:#FFFFFF;}
</style>
<defs>
</defs>
<circle cx="202.4" cy="202.4" r="202.4"/>
<g>
	<path class="st0" d="M81.7,290.7c-10.8-4.4-19.3-10.9-25.7-19.5c-6.4-8.7-9.8-19-10.2-31.2h48.1c0.7,6.8,3.1,12.1,7.1,15.7
		c4,3.6,9.4,5.4,15.8,5.4c6.7,0,12-1.6,15.8-4.6c3.9-3.1,5.8-7.4,5.8-12.8c0-4.6-1.6-8.3-4.6-11.4c-3.1-3-6.8-5.4-11.4-7.4
		c-4.5-1.9-10.9-4.1-19.2-6.6c-12-3.7-21.7-7.4-29.3-11.1c-7.5-3.7-14.1-9.2-19.5-16.4c-5.4-7.2-8.1-16.6-8.1-28.3
		c0-17.2,6.2-30.7,18.7-40.5c12.6-9.7,28.9-14.6,48.9-14.6c20.4,0,36.8,4.9,49.4,14.6c12.5,9.8,19.2,23.4,20,40.8h-48.8
		c-0.4-6-2.5-10.7-6.6-14.1c-4-3.4-9.3-5.2-15.6-5.2c-5.4,0-9.9,1.5-13.2,4.4s-5,7.1-5,12.5c0,6,2.8,10.7,8.5,14
		c5.6,3.3,14.4,7,26.3,10.9c12,4,21.7,7.9,29.1,11.6c7.4,3.7,13.9,9.1,19.4,16.1c5.4,7,8.1,16.1,8.1,27.2c0,10.6-2.7,20.1-8.1,28.8
		c-5.3,8.7-13.1,15.5-23.4,20.6c-10.2,5.1-22.2,7.6-36.1,7.6C104.6,297.2,92.5,295.1,81.7,290.7z"/>
	<path class="st0" d="M308,295.4l-38.5-69.9h-10.9v69.9h-45.2V110.1h75.8c14.6,0,27,2.5,37.4,7.6c10.3,5.1,18,12.1,23.1,21
		s7.6,18.8,7.6,29.7c0,12.3-3.5,23.3-10.4,33c-6.9,9.7-17.2,16.5-30.7,20.6l42.8,73.3L308,295.4L308,295.4z M258.6,193.5h28
		c8.2,0,14.4-2,18.6-6c4.1-4,6.2-9.8,6.2-17.2c0-7-2.1-12.6-6.2-16.6c-4.1-4-10.3-6-18.6-6h-28V193.5z"/>
</g>
</svg>
